# xmcd CD database file
#
# Track frame offsets:
#	150
#	16215
#	38613
#	57085
#	75668
#	93057
#	111531
#	132088
#	153328
#
# Disc length: 2170 seconds
#
# Revision: 0
# Processed by: cddbd v1.5.2PL0 Copyright (c) Steve Scherf et al.
# Submitted via: CDex 1.70beta2
#
DISCID=60087809
DTITLE=DER-UNTERMENSCH - THE MAN IN THE PLANET (1997 ALBUM)
DYEAR=1997
DGENRE=Industrial Metal
TTITLE0=ABDUCTION
TTITLE1=PLANET X
TTITLE2=REGRESSION
TTITLE3=FACE TO FACE
TTITLE4=FREAKS
TTITLE5=THORN
TTITLE6=GODSTONE
TTITLE7=SCARS OF THE DANCE
TTITLE8=DISTURB
EXTD=YEAR: 1997
EXTT0=
EXTT1=
EXTT2=
EXTT3=
EXTT4=
EXTT5=
EXTT6=
EXTT7=
EXTT8=
PLAYORDER=
